<?xml version="1.0" encoding="UTF-8"?>
<svg width="24px" height="23px" viewBox="0 0 24 23" version="1.1" xmlns="http://www.w3.org/2000/svg" xmlns:xlink="http://www.w3.org/1999/xlink">
    <!-- Generator: Sketch 41.2 (35397) - http://www.bohemiancoding.com/sketch -->
    <title>ui edit profile</title>
    <desc>Created with Sketch.</desc>
    <defs></defs>
    <g id="Symbols" stroke="none" stroke-width="1" fill="none" fill-rule="evenodd">
        <g id="ui-edit-profile" fill="#5B5B5B">
            <g id="icons">
                <g>
                    <path d="M21.5,10 L15.5,10 C15.224,10 15,10.224 15,10.5 C15,10.776 15.224,11 15.5,11 L21.5,11 C21.776,11 22,10.776 22,10.5 C22,10.224 21.776,10 21.5,10 L21.5,10 Z" id="Shape"></path>
                    <path d="M21.5,13 L15.5,13 C15.224,13 15,13.224 15,13.5 C15,13.776 15.224,14 15.5,14 L21.5,14 C21.776,14 22,13.776 22,13.5 C22,13.224 21.776,13 21.5,13 L21.5,13 Z" id="Shape"></path>
                    <path d="M22,16.5 C22,16.224 21.776,16 21.5,16 L2.5,16 C2.224,16 2,16.224 2,16.5 C2,16.776 2.224,17 2.5,17 L21.5,17 C21.776,17 22,16.776 22,16.5 L22,16.5 Z" id="Shape"></path>
                    <path d="M2.5,19 C2.224,19 2,19.224 2,19.5 C2,19.776 2.224,20 2.5,20 L19.5,20 C19.776,20 20,19.776 20,19.5 C20,19.224 19.776,19 19.5,19 L2.5,19 L2.5,19 Z" id="Shape"></path>
                    <path d="M23.5,7 L15.68,7 C15.404,7 15.18,7.224 15.18,7.5 C15.18,7.776 15.404,8 15.68,8 L23,8 L23,17.906 C23,20.163 21.164,22 18.906,22 L1,22 L1,8 L5.33,8 C5.606,8 5.83,7.776 5.83,7.5 C5.83,7.224 5.606,7 5.33,7 L0.5,7 C0.224,7 0,7.224 0,7.5 L0,22.5 C0,22.776 0.224,23 0.5,23 L18.906,23 C21.715,23 24,20.715 24,17.906 L24,7.5 C24,7.224 23.776,7 23.5,7 L23.5,7 Z" id="Shape"></path>
                    <path d="M18,2.159 C18,1.582 17.775,1.04 17.368,0.633 C16.552,-0.183 15.131,-0.183 14.314,0.633 L5.32,9.627 C5.265,9.682 5.224,9.749 5.199,9.822 L4.026,13.342 C3.966,13.522 4.013,13.72 4.147,13.854 C4.242,13.949 4.37,14 4.5,14 C4.553,14 4.606,13.991 4.658,13.975 L8.178,12.802 C8.252,12.778 8.319,12.736 8.373,12.681 L17.368,3.686 C17.775,3.278 18,2.736 18,2.159 L18,2.159 Z M16.661,2.979 L7.75,11.89 L5.291,12.71 L6.111,10.251 L15.022,1.34 C15.46,0.902 16.223,0.902 16.662,1.34 C16.879,1.559 17,1.85 17,2.159 C17,2.468 16.879,2.76 16.661,2.979 L16.661,2.979 Z" id="Shape"></path>
                </g>
            </g>
        </g>
    </g>
</svg>